<?xml version="1.0" encoding="UTF-8" standalone="no"?>
<svg width="108.656mm" height="44.45mm"
 xmlns="http://www.w3.org/2000/svg" xmlns:xlink="http://www.w3.org/1999/xlink"  version="1.2" baseProfile="tiny">
<title>Qt Svg Document</title>
<desc>Generated with Qt</desc>
<defs>
</defs>
<g fill="none" stroke="black" vector-effect="non-scaling-stroke" stroke-width="1" fill-rule="evenodd" stroke-linecap="square" stroke-linejoin="bevel" >

<g fill="#ffffff" fill-opacity="1" stroke="none" transform="matrix(1,0,0,1,-123,-90)"
font-family="Sans Serif" font-size="10" font-weight="400" font-style="normal" 
>
<path fill-rule="evenodd" d="M123,90 L431,90 L431,216 L123,216 L123,90"/>
</g>

<g fill="none" stroke="#ff0000" stroke-opacity="1" vector-effect="non-scaling-stroke" stroke-width="1" stroke-linecap="square" stroke-linejoin="bevel" transform="matrix(1,0,0,1,-123,-90)"
font-family="Sans Serif" font-size="10" font-weight="400" font-style="normal" 
>
<polyline fill="none" points="285,187 179,176 " />
<polyline fill="none" points="285,114 179,152 " />
<polyline fill="none" points="285,165 196,165 " />
<polyline fill="none" points="196,165 179,165 " />
</g>

<g fill="#ffffff" fill-opacity="1" stroke="none" transform="matrix(1,0,0,1,-123,-90)"
font-family="Sans Serif" font-size="10" font-weight="400" font-style="normal" 
>
<path fill-rule="evenodd" d="M179,176 L190,184 L191,171 L179,176"/>
</g>

<g fill="#ffffff" fill-opacity="1" stroke="none" transform="matrix(1,0,0,1,-123,-90)"
font-family="Sans Serif" font-size="10" font-weight="400" font-style="normal" 
>
<path fill-rule="evenodd" d="M179,165 L190,172 L190,158 L179,165"/>
</g>

<g fill="#ffffff" fill-opacity="1" stroke="none" transform="matrix(1,0,0,1,-123,-90)"
font-family="Sans Serif" font-size="10" font-weight="400" font-style="normal" 
>
<path fill-rule="evenodd" d="M179,152 L192,154 L187,142 L179,152"/>
</g>

<g fill="none" stroke="#ff0000" stroke-opacity="1" vector-effect="non-scaling-stroke" stroke-width="1" stroke-linecap="square" stroke-linejoin="bevel" transform="matrix(1,0,0,1,-123,-90)"
font-family="Sans Serif" font-size="10" font-weight="400" font-style="normal" 
>
<polyline fill="none" points="190,172 190,158 " />
<polyline fill="none" points="179,176 190,184 " />
<polyline fill="none" points="179,176 191,171 " />
<polyline fill="none" points="192,154 187,142 " />
<polyline fill="none" points="179,165 190,158 " />
<polyline fill="none" points="190,184 191,171 " />
<polyline fill="none" points="179,165 190,172 " />
<polyline fill="none" points="179,152 192,154 " />
<polyline fill="none" points="179,152 187,142 " />
</g>

<g fill="#ffff00" fill-opacity="1" stroke="#ff0000" stroke-opacity="1" vector-effect="non-scaling-stroke" stroke-width="1" stroke-linecap="square" stroke-linejoin="bevel" transform="matrix(1,0,0,1,-123,-90)"
font-family="Sans Serif" font-size="10" font-weight="400" font-style="normal" 
>
<path fill-rule="evenodd" d="M285,143 L372,143 L372,167 L285,167 L285,143"/>
</g>

<g fill="#ffff00" fill-opacity="1" stroke="#000000" stroke-opacity="1" vector-effect="non-scaling-stroke" stroke-width="1" stroke-linecap="square" stroke-linejoin="bevel" transform="matrix(1,0,0,1,-123,-90)"
font-family="Sans Serif" font-size="10" font-weight="700" font-style="normal" 
>
</g>

<g fill="#ffff00" fill-opacity="1" stroke="#000000" stroke-opacity="1" vector-effect="non-scaling-stroke" stroke-width="1" stroke-linecap="square" stroke-linejoin="bevel" transform="matrix(1,0,0,1,-123,-90)"
font-family="Sans Serif" font-size="10" font-weight="700" font-style="normal" 
>
<text fill="#000000" fill-opacity="1" stroke="none" xml:space="preserve" x="290" y="152" font-family="Sans Serif" font-size="10" font-weight="700" font-style="normal" 
 >CUDAMemory</text>
</g>

<g fill="#ffff00" fill-opacity="1" stroke="#000000" stroke-opacity="1" vector-effect="non-scaling-stroke" stroke-width="1" stroke-linecap="square" stroke-linejoin="bevel" transform="matrix(1,0,0,1,-123,-90)"
font-family="Sans Serif" font-size="10" font-weight="700" font-style="normal" 
>
</g>

<g fill="#ffff00" fill-opacity="1" stroke="#ff0000" stroke-opacity="1" vector-effect="non-scaling-stroke" stroke-width="1" stroke-linecap="square" stroke-linejoin="bevel" transform="matrix(1,0,0,1,-123,-90)"
font-family="Sans Serif" font-size="10" font-weight="700" font-style="normal" 
>
<polyline fill="none" points="285,155 371,155 " />
</g>

<g fill="#ffff00" fill-opacity="1" stroke="#ff0000" stroke-opacity="1" vector-effect="non-scaling-stroke" stroke-width="1" stroke-linecap="square" stroke-linejoin="bevel" transform="matrix(1,0,0,1,-123,-90)"
font-family="Sans Serif" font-size="10" font-weight="400" font-style="normal" 
>
<polyline fill="none" points="285,161 371,161 " />
</g>

<g fill="#ffff00" fill-opacity="1" stroke="#ff0000" stroke-opacity="1" vector-effect="non-scaling-stroke" stroke-width="1" stroke-linecap="square" stroke-linejoin="bevel" transform="matrix(1,0,0,1,-123,-90)"
font-family="Sans Serif" font-size="10" font-weight="400" font-style="normal" 
>
<path fill-rule="evenodd" d="M285,90 L367,90 L367,114 L285,114 L285,90"/>
</g>

<g fill="#ffff00" fill-opacity="1" stroke="#000000" stroke-opacity="1" vector-effect="non-scaling-stroke" stroke-width="1" stroke-linecap="square" stroke-linejoin="bevel" transform="matrix(1,0,0,1,-123,-90)"
font-family="Sans Serif" font-size="10" font-weight="700" font-style="normal" 
>
</g>

<g fill="#ffff00" fill-opacity="1" stroke="#000000" stroke-opacity="1" vector-effect="non-scaling-stroke" stroke-width="1" stroke-linecap="square" stroke-linejoin="bevel" transform="matrix(1,0,0,1,-123,-90)"
font-family="Sans Serif" font-size="10" font-weight="700" font-style="normal" 
>
<text fill="#000000" fill-opacity="1" stroke="none" xml:space="preserve" x="290" y="99" font-family="Sans Serif" font-size="10" font-weight="700" font-style="normal" 
 >HostMemory</text>
</g>

<g fill="#ffff00" fill-opacity="1" stroke="#000000" stroke-opacity="1" vector-effect="non-scaling-stroke" stroke-width="1" stroke-linecap="square" stroke-linejoin="bevel" transform="matrix(1,0,0,1,-123,-90)"
font-family="Sans Serif" font-size="10" font-weight="700" font-style="normal" 
>
</g>

<g fill="#ffff00" fill-opacity="1" stroke="#ff0000" stroke-opacity="1" vector-effect="non-scaling-stroke" stroke-width="1" stroke-linecap="square" stroke-linejoin="bevel" transform="matrix(1,0,0,1,-123,-90)"
font-family="Sans Serif" font-size="10" font-weight="700" font-style="normal" 
>
<polyline fill="none" points="285,102 366,102 " />
</g>

<g fill="#ffff00" fill-opacity="1" stroke="#ff0000" stroke-opacity="1" vector-effect="non-scaling-stroke" stroke-width="1" stroke-linecap="square" stroke-linejoin="bevel" transform="matrix(1,0,0,1,-123,-90)"
font-family="Sans Serif" font-size="10" font-weight="400" font-style="normal" 
>
<polyline fill="none" points="285,108 366,108 " />
</g>

<g fill="#ffff00" fill-opacity="1" stroke="#ff0000" stroke-opacity="1" vector-effect="non-scaling-stroke" stroke-width="1" stroke-linecap="square" stroke-linejoin="bevel" transform="matrix(1,0,0,1,-123,-90)"
font-family="Sans Serif" font-size="10" font-weight="400" font-style="normal" 
>
<path fill-rule="evenodd" d="M123,152 L179,152 L179,176 L123,176 L123,152"/>
</g>

<g fill="#ffff00" fill-opacity="1" stroke="#000000" stroke-opacity="1" vector-effect="non-scaling-stroke" stroke-width="1" stroke-linecap="square" stroke-linejoin="bevel" transform="matrix(1,0,0,1,-123,-90)"
font-family="Sans Serif" font-size="10" font-weight="700" font-style="normal" 
>
</g>

<g fill="#ffff00" fill-opacity="1" stroke="#000000" stroke-opacity="1" vector-effect="non-scaling-stroke" stroke-width="1" stroke-linecap="square" stroke-linejoin="bevel" transform="matrix(1,0,0,1,-123,-90)"
font-family="Sans Serif" font-size="10" font-weight="700" font-style="normal" 
>
<text fill="#000000" fill-opacity="1" stroke="none" xml:space="preserve" x="128" y="161" font-family="Sans Serif" font-size="10" font-weight="700" font-style="normal" 
 >Memory</text>
</g>

<g fill="#ffff00" fill-opacity="1" stroke="#000000" stroke-opacity="1" vector-effect="non-scaling-stroke" stroke-width="1" stroke-linecap="square" stroke-linejoin="bevel" transform="matrix(1,0,0,1,-123,-90)"
font-family="Sans Serif" font-size="10" font-weight="700" font-style="normal" 
>
</g>

<g fill="#ffff00" fill-opacity="1" stroke="#ff0000" stroke-opacity="1" vector-effect="non-scaling-stroke" stroke-width="1" stroke-linecap="square" stroke-linejoin="bevel" transform="matrix(1,0,0,1,-123,-90)"
font-family="Sans Serif" font-size="10" font-weight="700" font-style="normal" 
>
<polyline fill="none" points="123,164 178,164 " />
</g>

<g fill="#ffff00" fill-opacity="1" stroke="#ff0000" stroke-opacity="1" vector-effect="non-scaling-stroke" stroke-width="1" stroke-linecap="square" stroke-linejoin="bevel" transform="matrix(1,0,0,1,-123,-90)"
font-family="Sans Serif" font-size="10" font-weight="400" font-style="normal" 
>
<polyline fill="none" points="123,170 178,170 " />
</g>

<g fill="#ffff00" fill-opacity="1" stroke="#ff0000" stroke-opacity="1" vector-effect="non-scaling-stroke" stroke-width="1" stroke-linecap="square" stroke-linejoin="bevel" transform="matrix(1,0,0,1,-123,-90)"
font-family="Sans Serif" font-size="10" font-weight="400" font-style="normal" 
>
<path fill-rule="evenodd" d="M285,187 L398,187 L398,211 L285,211 L285,187"/>
</g>

<g fill="#ffff00" fill-opacity="1" stroke="#000000" stroke-opacity="1" vector-effect="non-scaling-stroke" stroke-width="1" stroke-linecap="square" stroke-linejoin="bevel" transform="matrix(1,0,0,1,-123,-90)"
font-family="Sans Serif" font-size="10" font-weight="700" font-style="normal" 
>
</g>

<g fill="#ffff00" fill-opacity="1" stroke="#000000" stroke-opacity="1" vector-effect="non-scaling-stroke" stroke-width="1" stroke-linecap="square" stroke-linejoin="bevel" transform="matrix(1,0,0,1,-123,-90)"
font-family="Sans Serif" font-size="10" font-weight="700" font-style="normal" 
>
<text fill="#000000" fill-opacity="1" stroke="none" xml:space="preserve" x="290" y="196" font-family="Sans Serif" font-size="10" font-weight="700" font-style="normal" 
 >CUDAHostMemory</text>
</g>

<g fill="#ffff00" fill-opacity="1" stroke="#000000" stroke-opacity="1" vector-effect="non-scaling-stroke" stroke-width="1" stroke-linecap="square" stroke-linejoin="bevel" transform="matrix(1,0,0,1,-123,-90)"
font-family="Sans Serif" font-size="10" font-weight="700" font-style="normal" 
>
</g>

<g fill="#ffff00" fill-opacity="1" stroke="#ff0000" stroke-opacity="1" vector-effect="non-scaling-stroke" stroke-width="1" stroke-linecap="square" stroke-linejoin="bevel" transform="matrix(1,0,0,1,-123,-90)"
font-family="Sans Serif" font-size="10" font-weight="700" font-style="normal" 
>
<polyline fill="none" points="285,199 397,199 " />
</g>

<g fill="#ffff00" fill-opacity="1" stroke="#ff0000" stroke-opacity="1" vector-effect="non-scaling-stroke" stroke-width="1" stroke-linecap="square" stroke-linejoin="bevel" transform="matrix(1,0,0,1,-123,-90)"
font-family="Sans Serif" font-size="10" font-weight="400" font-style="normal" 
>
<polyline fill="none" points="285,205 397,205 " />
</g>

<g fill="none" stroke="#323232" stroke-opacity="1" vector-effect="non-scaling-stroke" stroke-width="1" stroke-linecap="square" stroke-linejoin="bevel" transform="matrix(1,0,0,1,-123,-90)"
font-family="Sans Serif" font-size="10" font-weight="400" font-style="normal" 
>
<text fill="#323232" fill-opacity="1" stroke="none" xml:space="preserve" x="185" y="155" font-family="Sans Serif" font-size="10" font-weight="400" font-style="normal" 
 >1</text>
</g>

<g fill="none" stroke="#323232" stroke-opacity="1" vector-effect="non-scaling-stroke" stroke-width="1" stroke-linecap="square" stroke-linejoin="bevel" transform="matrix(1,0,0,1,-123,-90)"
font-family="Sans Serif" font-size="10" font-weight="400" font-style="normal" 
>
<text fill="#323232" fill-opacity="1" stroke="none" xml:space="preserve" x="271" y="155" font-family="Sans Serif" font-size="10" font-weight="400" font-style="normal" 
 >1</text>
</g>
</g>
</svg>
